<svg
  width="718"
  height="121"
  viewBox="0 0 718 121"
  fill="none"
  xmlns="http://www.w3.org/2000/svg"
>
  <g clip-path="url(#clip0_15_116)">
    <path
      d="M636.096 3.76831C639.282 2.95247 642.627 2.18414 645.811 2.38647C648.966 2.58703 651.958 3.74096 654.465 6.7937C656.092 8.7745 657.371 11.0525 658.629 13.3796L659.892 15.7136C672.064 37.9046 684.199 60.1351 697.844 82.1824L698.77 83.6775V64.407C698.77 46.8002 698.939 29.1756 698.684 11.5613C698.636 8.22795 699.219 6.05263 700.54 4.68628C701.859 3.32077 704.028 2.64671 707.453 2.60815C711.014 2.56807 713.318 3.19699 714.742 4.58765C716.163 5.97591 716.825 8.23985 716.802 11.7781C716.627 38.6384 716.709 65.5034 716.705 92.3621L716.696 103.873C716.692 106.573 716.694 109.183 715.9 111.366C715.125 113.495 713.582 115.241 710.377 116.177C706.255 117.38 702.479 117.414 699.262 116.303C696.052 115.195 693.355 112.931 691.403 109.458C679.584 88.4245 667.983 67.2716 656.281 46.1667C654.604 43.1429 652.826 40.0958 649.197 37.199L648.384 36.5515V88.7498C648.374 96.2915 648.322 103.091 648.367 109.886C648.378 111.553 648.112 112.787 647.659 113.707C647.209 114.618 646.563 115.247 645.758 115.687C644.111 116.59 641.801 116.713 639.15 116.713C636.569 116.712 634.45 116.441 632.978 115.481C631.559 114.555 630.643 112.916 630.646 109.901C630.677 79.2316 630.543 48.5684 630.856 17.9099L630.925 11.7781C630.942 10.4216 631.653 8.55237 632.699 6.92065C633.217 6.11286 633.803 5.38487 634.401 4.82593C635.005 4.26132 635.588 3.89859 636.096 3.76831Z"
      fill="#44403C"
      stroke="#44403C"
    />
    <path
      d="M200.927 2.79285C209.219 3.48855 216.785 3.39169 224.01 5.01453C232.686 6.96353 239.773 10.7054 244.907 16.1444C250.039 21.5808 253.249 28.7419 254.125 37.5809C255.576 52.2152 255.69 67.2532 254.045 81.8397C252.973 91.3475 249.344 99.0328 243.591 104.639C237.837 110.246 229.925 113.805 220.234 114.998C206.373 116.704 192.245 116.319 178.162 116.516C175.26 116.557 173.113 115.73 171.687 114.224C170.256 112.713 169.481 110.443 169.481 107.46C169.481 75.5375 169.474 43.6152 169.492 11.6932C169.494 8.69561 170.286 6.52383 171.735 5.08875C173.185 3.65175 175.373 2.8761 178.329 2.83679C185.61 2.73998 192.889 2.79986 200.927 2.79285ZM189.008 101.413L189.534 101.385C197.989 100.932 206.126 101.153 213.992 99.9227C220.472 98.9097 225.506 96.5307 229.023 92.7255C232.54 88.9193 234.49 83.7389 234.9 77.2157C235.622 65.7052 235.453 54.1062 234.997 42.5878C234.766 36.743 233.13 31.8225 229.908 27.9423C226.688 24.064 221.922 21.2705 215.514 19.6063L215.467 19.5946L215.418 19.5917L189.537 18.0575L189.008 18.0262V101.413Z"
      fill="#44403C"
      stroke="#44403C"
    />
    <path
      d="M35.3174 3.625C37.5163 1.97778 40.4094 1.25352 44.2217 1.57422C47.2489 1.82895 50.3284 1.67276 53.3154 1.65137C55.9803 1.63231 58.1378 2.27618 59.8174 3.51074C61.4976 4.74584 62.7432 6.60462 63.5273 9.09082C74.0129 42.3369 84.5508 75.5628 94.6299 108.927C94.766 109.377 94.7679 110.009 94.6289 110.756C94.4916 111.493 94.2249 112.301 93.8711 113.079C93.5173 113.857 93.0821 114.593 92.6143 115.189C92.1412 115.792 91.6606 116.221 91.2266 116.43C88.2984 117.839 84.9996 117.94 82.2236 117.089C79.4396 116.236 77.2503 114.452 76.4385 112.162C75.0621 108.281 73.878 104.329 72.6885 100.363C71.5001 96.4017 70.3058 92.4265 68.9141 88.5195C68.5553 87.5126 67.7214 86.4033 66.7803 85.5449C66.3052 85.1116 65.788 84.7288 65.2686 84.4482C64.7541 84.1705 64.2074 83.9769 63.6807 83.9609C51.6392 83.5971 39.5771 83.7666 27.1387 83.7666H26.7686L26.6602 84.1191C23.9292 92.9984 21.4113 101.587 18.6309 110.097C17.5923 113.275 14.8901 115.759 11.7529 116.938C8.61659 118.116 5.12824 117.961 2.50879 115.985C2.12436 115.695 1.76323 115.203 1.45312 114.545C1.14574 113.893 0.9034 113.109 0.740234 112.276C0.411805 110.6 0.416638 108.8 0.776367 107.556C6.13639 89.0158 12.043 70.6372 17.9434 51.6104C22.2458 37.8835 26.5653 24.7679 30.4668 11.5371C31.5365 7.90962 33.1114 5.27757 35.3174 3.625ZM46.6035 16.7773C41.3162 34.579 36.6508 50.2877 31.7041 66.9424L31.5137 67.585H32.1836C41.122 67.585 49.0834 67.5844 58.4717 67.5596H58.627L58.7559 67.4697C58.9563 67.3304 59.2013 67.1917 59.4736 67.043C59.7376 66.8989 60.0334 66.7424 60.2998 66.585C60.5658 66.4278 60.8351 66.2501 61.0498 66.0488C61.2602 65.8515 61.4707 65.5828 61.5195 65.2354C61.6288 64.4581 61.5332 63.6604 61.3672 62.8975C61.2018 62.1377 60.9564 61.3714 60.749 60.6768C56.5625 46.6545 52.335 32.644 47.5615 16.7754L47.0801 15.1738L46.6035 16.7773Z"
      fill="#44403C"
      stroke="#44403C"
    />
    <path
      d="M532.661 5C537.619 5.00003 539.915 6.17423 541.008 7.53613C542.115 8.9165 542.111 10.6219 542.118 12.0566C542.261 43.7702 542.227 75.4851 542.196 107.201C542.194 109.424 542.122 111.118 541.886 112.418C541.652 113.713 541.263 114.562 540.67 115.146C540.075 115.731 539.213 116.111 537.905 116.338C536.593 116.566 534.89 116.632 532.661 116.633C530.426 116.634 528.722 116.573 527.413 116.351C526.107 116.128 525.254 115.753 524.667 115.173C524.08 114.593 523.698 113.745 523.469 112.443C523.238 111.137 523.17 109.432 523.168 107.189C523.136 77.2357 523.114 47.2823 523.154 17.3291C523.157 14.8631 523.158 12.859 523.31 11.2236C523.463 9.58667 523.762 8.38442 524.322 7.49512C525.409 5.76868 527.631 5 532.661 5Z"
      fill="#44403C"
      stroke="#44403C"
    />
    <path
      d="M446.971 52.7431C446.971 67.6711 446.981 82.6064 446.951 97.5402C446.951 97.78 446.963 98.0148 446.976 98.3974C446.987 98.737 446.997 99.1718 446.971 99.6216C446.927 100.355 446.77 101.708 445.746 102.898L445.529 103.134L445.322 103.338C443.141 105.385 439.78 105.956 436.858 105.454C435.893 105.289 434.731 105.027 433.615 104.455C432.425 103.846 431.509 103.003 430.812 101.949C430.317 101.201 430.12 100.43 430.049 99.7685H410.154C410.142 103.886 410.121 107.941 410.182 112.012C410.199 113.178 410.291 115.346 409.324 117.187C408.774 118.234 407.875 119.222 406.505 119.93C405.179 120.615 403.659 120.911 402.076 120.963C400.49 121.015 398.942 120.827 397.553 120.244C396.109 119.639 395.092 118.713 394.436 117.665C393.697 116.484 393.44 115.164 393.36 114.023H382.679C382.678 114.04 382.676 114.058 382.675 114.076C382.582 115.889 381.901 117.781 380.145 119.182C378.378 120.592 376.075 121.065 373.799 120.993C371.472 120.919 369.304 120.214 367.782 118.675C366.331 117.206 365.89 115.4 365.887 113.809C365.876 109.175 365.88 104.538 365.882 99.7953H345.914C345.915 102.165 344.461 104.031 342.594 105.157C340.761 106.261 338.424 106.743 336.17 106.489C335.121 106.372 333.95 106.142 332.823 105.532C331.708 104.928 330.969 104.131 330.405 103.412C329.797 102.639 329.517 101.782 329.368 101.205C329.204 100.569 329.117 99.9297 329.068 99.4004C329.019 98.861 329.004 98.3732 329.001 98.0231C328.999 97.8462 329.001 97.6998 329.003 97.594L329.005 97.4658L329.151 88.9789L329.19 36.8085C329.189 36.5191 329.19 36.2294 329.19 35.94L329.191 35.9389L329.198 21.1551C329.198 21.0648 329.202 20.9742 329.211 20.8842C329.921 13.8353 333.316 8.0366 340.529 3.97558C345.938 0.930803 352.069 -0.310264 358.469 0.0650775C365.753 0.492188 371.625 2.69396 375.813 7.16747C379.266 10.8557 381.303 15.8117 382.386 21.8562C383.351 21.6573 384.817 21.3098 386.173 21.1014C388.297 20.7749 390.602 20.6919 393.398 21.1582C393.653 17.1654 395.527 13.6708 398.782 11.17C402.032 8.6736 406.402 7.3589 411.277 7.29258C417.009 7.21461 422.735 7.24095 428.423 7.28017C433.619 7.31605 438.265 8.60209 441.665 11.2403C445.104 13.9097 446.891 17.6732 446.939 21.9885C447.054 32.2488 446.97 42.5321 446.971 52.7431ZM365.879 85.848C365.888 64.4539 365.963 43.0877 365.843 21.7155C365.823 18.1784 363.821 15.8189 361.028 14.6824C358.195 13.53 354.037 13.4499 349.451 15.5024C346.747 17.3286 345.838 19.693 345.846 23.0184C345.897 43.9623 345.866 64.9148 345.88 85.848H365.879ZM393.332 100.3C393.351 79.9167 393.395 59.5491 393.298 39.1805C393.292 37.8317 392.709 36.8787 391.881 36.246C391.023 35.5903 389.675 35.1133 387.876 35.1448C386.1 35.176 384.842 35.6873 384.046 36.3567C383.26 37.0172 382.691 38.0253 382.685 39.4462C382.666 44.4298 382.664 49.4118 382.666 54.4885L382.673 100.3H393.332ZM430.173 85.8315C430.175 64.3058 430.185 42.9326 430.152 21.5584C430.151 21.2628 430.102 21.1111 430.08 21.0559C429.965 21.0014 429.509 20.8284 428.388 20.8346C425.843 20.8488 423.3 20.8449 420.777 20.8408C418.248 20.8366 415.737 20.8325 413.229 20.847C411.765 20.8555 410.868 20.9012 410.285 20.9866C410.21 21.4012 410.164 22.0441 410.163 23.0897C410.157 42.2117 410.161 61.3332 410.161 81.1951V85.8315H430.173Z"
      fill="#44403C"
      stroke="#44403C"
      stroke-linejoin="round"
    />
  </g>
  <defs>
    <clipPath id="clip0_15_116">
      <rect width="717.303" height="121" fill="white" />
    </clipPath>
  </defs>
</svg>
