<svg
  width="300"
  height="300"
  viewBox="0 0 300 300"
  fill="none"
  xmlns="http://www.w3.org/2000/svg"
>
  <rect width="300" height="300" rx="50" fill="#E7E5E4" />
  <rect
    x="0.5"
    y="0.5"
    width="299"
    height="299"
    rx="49.5"
    stroke="white"
    stroke-opacity="0.1"
  />
  <path
    d="M221.277 63.0249C221.277 63.0249 225.788 63.291 228.432 64.2497C230.501 65 232.039 66.1328 233.085 68.0104C234.096 69.8276 234.534 71.9122 234.61 74.0819C234.686 76.2561 234.409 78.3806 233.549 80.2847C232.655 82.264 231.287 83.6585 229.739 84.5577C227.997 85.5703 226.047 85.9205 224.362 86.0308V100.675C224.388 100.676 224.414 100.679 224.44 100.68C227.117 100.808 229.912 101.74 231.981 104.147C234.062 106.569 234.761 109.726 234.654 112.846C234.545 116.037 233.505 119.009 231.231 121.095C229.063 123.084 226.396 123.691 224.046 123.696C217.204 123.711 210.357 123.703 203.354 123.701V151.136C213.52 151.152 223.527 151.204 233.553 151.073C236.92 151.029 239.677 152.705 241.416 155.429C243.002 157.912 243.552 160.936 243.595 163.681C243.625 165.635 243.264 167.552 242.124 169.335C241.189 170.799 239.881 171.867 239.037 172.57C237.686 173.696 236.178 174.091 234.99 174.231V213.585C235.148 213.592 235.309 213.602 235.471 213.618C236.324 213.706 237.56 213.97 238.746 214.839L238.982 215.02L239.33 215.316C242.841 218.432 243.361 223.376 243.572 225.614C243.827 228.33 242.61 230.617 241.74 231.909C240.738 233.396 239.402 234.741 237.975 235.756C237.975 235.756 235.402 236.808 233.443 236.74C232.922 236.685 232.261 236.851 231.739 236.795C231.739 236.795 231.2 236.74 231.104 236.74C196.67 236.741 162.235 236.742 127.254 236.742C122.235 236.742 117.458 236.77 112.759 236.759L108.08 236.73C91.4234 236.564 78.3907 221.798 77.5483 202.878C77.1479 193.884 76.2545 183.182 80.1254 172.743C72.72 170.648 66.5226 166.129 61.8702 158.456C57.3745 151.041 55.5419 142.637 56.0961 133.863C56.7268 123.878 59.9778 115.828 66.5832 110.086C72.0074 105.371 79.2885 102.583 88.1652 101.093C87.7798 99.6929 87.2621 98.1427 86.6904 96.1179C85.5639 92.129 84.6912 87.2477 86.7942 81.2512C87.9168 78.0503 88.6216 76.7387 90.4522 74.0686C93.029 70.3103 96.5008 67.558 100.12 65.702C102.769 64.3429 106.389 63.7271 108.848 63.4152C110.176 63.2467 111.37 63.1452 112.231 63.0847C112.663 63.0543 113.017 63.0342 113.266 63.0216C113.391 63.0153 113.489 63.0096 113.559 63.0066C113.595 63.0051 113.623 63.0041 113.643 63.0033H113.682C113.732 63.0016 113.782 63 113.833 63H198.625L210.067 63.0249C213.852 63.0305 221.277 63.0249 221.277 63.0249ZM109.068 174.004C106.695 174.006 104.802 174.599 103.188 175.729C101.689 176.779 100.186 178.466 98.7607 181.135C98.1398 186.933 97.3236 191.656 97.2645 196.777C97.1845 203.715 98.5666 207.776 100.518 210.108C102.398 212.354 105.587 213.913 111.141 213.917C145.553 213.943 179.965 213.931 214.379 213.914C214.389 213.914 214.398 213.912 214.408 213.912V174.052C179.291 174.016 144.179 173.975 109.068 174.004ZM182.76 123.704C151.171 123.692 119.622 123.591 88.0644 123.756C82.8417 123.783 79.3576 126.526 77.6796 130.355C75.9776 134.239 75.8604 139.939 78.8918 146.227C81.5883 149.933 85.0786 151.18 89.9881 151.169C120.913 151.1 151.851 151.141 182.76 151.122V123.704ZM204.099 86.069C174.002 86.0435 143.928 85.9823 113.853 86.1155C111.861 86.1243 110.454 86.9238 109.52 88.0585C108.551 89.2346 107.847 91.0827 107.894 93.5488C107.94 95.9832 108.695 97.7083 109.683 98.8C110.658 99.8771 112.147 100.657 114.245 100.665C128.963 100.718 143.671 100.682 159.507 100.682H204.099V86.069Z"
    fill="#44403C"
    stroke="#44403C"
    stroke-width="2"
    stroke-linejoin="round"
  />
</svg>
