<svg
  width="573"
  height="118"
  viewBox="0 0 573 118"
  fill="none"
  xmlns="http://www.w3.org/2000/svg"
>
  <g clip-path="url(#clip0_15_117)">
    <path
      d="M14.4629 1.57031C26.5657 1.56298 38.6518 1.28672 50.6973 1.88477C61.2603 2.40925 69.0271 5.31948 74.2734 10.7119C79.5193 16.1041 82.3201 24.0548 82.7881 34.8193C82.6117 40.1078 82.8929 44.6142 82.1484 48.9902C81.0269 55.582 78.2563 60.499 74.04 64.1123C69.8139 67.7339 64.0992 70.077 57.0449 71.4482L56.2344 71.6055L56.75 72.251C64.7046 82.1999 72.3221 91.0015 78.9844 100.492C79.9554 101.875 80.6484 103.848 80.9482 105.89C81.2483 107.933 81.1448 109.982 80.5869 111.516C80.3842 112.073 79.9443 112.688 79.3184 113.302C78.697 113.911 77.9175 114.493 77.0762 114.988C76.2349 115.483 75.343 115.883 74.501 116.136C73.6527 116.39 72.8865 116.484 72.2842 116.399C70.5466 116.155 68.6906 115.31 66.9502 114.13C65.2136 112.952 63.621 111.46 62.4121 109.959C53.1058 98.4054 44.3706 86.3999 35.416 74.5352C34.6611 73.5349 33.9305 72.5309 33.3105 71.4756C30.8731 67.3264 30.5281 63.9401 31.7939 61.584C33.0586 59.2305 36.0496 57.6844 40.8076 57.4971C45.7657 57.3019 49.7855 56.8552 52.9912 55.9805C56.2017 55.1044 58.6273 53.7908 60.3613 51.8428C63.8213 47.9556 64.3721 41.7184 63.4189 32.083C62.9474 27.3167 61.7067 23.7547 59.3018 21.3301C56.8915 18.9002 53.3921 17.693 48.5869 17.4541C39.5447 17.0045 30.443 17.3564 20.2041 17.3564H19.7041V25.9473C19.7031 52.6382 19.7353 79.3272 19.6826 106.017C19.6782 108.247 19.606 109.941 19.3691 111.239C19.1332 112.532 18.7435 113.374 18.1475 113.951C17.5497 114.53 16.6815 114.903 15.3604 115.124C14.036 115.346 12.3156 115.406 10.0635 115.404C7.83183 115.402 6.12667 115.336 4.81445 115.107C3.50626 114.879 2.64573 114.497 2.05176 113.909C1.45822 113.322 1.0702 112.467 0.835938 111.163C0.600877 109.854 0.529658 108.149 0.527344 105.91C0.496101 75.6952 0.485306 45.4801 0.530273 15.2656C0.538657 9.65632 1.30752 6.30512 3.3291 4.31738C5.35348 2.32695 8.76517 1.57376 14.4629 1.57031Z"
      fill="#44403C"
      stroke="#44403C"
    />
    <path
      d="M517.927 1.79285C526.219 2.48855 533.785 2.39169 541.01 4.01453C549.686 5.96353 556.773 9.70544 561.907 15.1444C567.039 20.5808 570.249 27.7419 571.125 36.5809C572.576 51.2152 572.69 66.2532 571.045 80.8397C569.973 90.3475 566.344 98.0328 560.591 103.639C554.837 109.246 546.925 112.805 537.234 113.998C523.373 115.704 509.245 115.319 495.162 115.516C492.26 115.557 490.113 114.73 488.687 113.224C487.256 111.713 486.481 109.443 486.481 106.46C486.481 74.5375 486.474 42.6152 486.492 10.6932C486.494 7.69561 487.286 5.52383 488.735 4.08875C490.185 2.65175 492.373 1.8761 495.329 1.83679C502.61 1.73998 509.889 1.79986 517.927 1.79285ZM506.008 100.413L506.534 100.385C514.989 99.9317 523.126 100.153 530.992 98.9227C537.472 97.9097 542.506 95.5307 546.023 91.7255C549.54 87.9193 551.49 82.7389 551.9 76.2157C552.622 64.7052 552.453 53.1062 551.997 41.5878C551.766 35.743 550.13 30.8225 546.908 26.9423C543.688 23.064 538.922 20.2705 532.514 18.6063L532.467 18.5946L532.418 18.5917L506.537 17.0575L506.008 17.0262V100.413Z"
      fill="#44403C"
      stroke="#44403C"
    />
    <path
      d="M352.317 2.625C354.516 0.977783 357.409 0.253515 361.222 0.574219C364.249 0.828948 367.328 0.672763 370.315 0.651367C372.98 0.632307 375.138 1.27618 376.817 2.51074C378.498 3.74584 379.743 5.60462 380.527 8.09082C391.013 41.3369 401.551 74.5628 411.63 107.927C411.766 108.377 411.768 109.009 411.629 109.756C411.492 110.493 411.225 111.301 410.871 112.079C410.517 112.857 410.082 113.593 409.614 114.189C409.141 114.792 408.661 115.221 408.227 115.43C405.298 116.839 402 116.94 399.224 116.089C396.44 115.236 394.25 113.452 393.438 111.162C392.062 107.281 390.878 103.329 389.688 99.3633C388.5 95.4017 387.306 91.4265 385.914 87.5195C385.555 86.5126 384.721 85.4033 383.78 84.5449C383.305 84.1116 382.788 83.7288 382.269 83.4482C381.754 83.1705 381.207 82.9769 380.681 82.9609C368.639 82.5971 356.577 82.7666 344.139 82.7666H343.769L343.66 83.1191C340.929 91.9984 338.411 100.587 335.631 109.097C334.592 112.275 331.89 114.759 328.753 115.938C325.617 117.116 322.128 116.961 319.509 114.985C319.124 114.695 318.763 114.203 318.453 113.545C318.146 112.893 317.903 112.109 317.74 111.276C317.412 109.6 317.417 107.8 317.776 106.556C323.136 88.0158 329.043 69.6372 334.943 50.6104C339.246 36.8835 343.565 23.7679 347.467 10.5371C348.536 6.90962 350.111 4.27757 352.317 2.625ZM363.604 15.7773C358.316 33.579 353.651 49.2877 348.704 65.9424L348.514 66.585H349.184C358.122 66.585 366.083 66.5844 375.472 66.5596H375.627L375.756 66.4697C375.956 66.3304 376.201 66.1917 376.474 66.043C376.738 65.8989 377.033 65.7424 377.3 65.585C377.566 65.4278 377.835 65.2501 378.05 65.0488C378.26 64.8515 378.471 64.5828 378.52 64.2354C378.629 63.4581 378.533 62.6604 378.367 61.8975C378.202 61.1377 377.956 60.3714 377.749 59.6768C373.563 45.6545 369.335 31.644 364.562 15.7754L364.08 14.1738L363.604 15.7773Z"
      fill="#44403C"
      stroke="#44403C"
    />
    <path
      d="M245.241 1.01648C245.241 1.01648 248.223 1.19254 249.971 1.82688C251.338 2.32328 252.355 3.07283 253.046 4.31513C253.714 5.51748 254.003 6.89679 254.054 8.33241C254.104 9.77094 253.921 11.1767 253.352 12.4365C252.761 13.7461 251.857 14.6688 250.835 15.2637C249.683 15.9338 248.394 16.1655 247.281 16.2384V25.9278C247.298 25.9286 247.315 25.9302 247.332 25.9311C249.101 26.0157 250.948 26.6327 252.316 28.2254C253.692 29.8276 254.154 31.9166 254.083 33.981C254.011 36.0918 253.323 38.0585 251.821 39.4388C250.387 40.7551 248.625 41.1562 247.072 41.1596C242.549 41.1695 238.024 41.1645 233.395 41.1629V59.3153C240.114 59.3264 246.728 59.3607 253.355 59.2736C255.581 59.2445 257.403 60.3536 258.552 62.1558C259.6 63.7991 259.964 65.7999 259.992 67.6158C260.012 68.909 259.774 70.1772 259.021 71.3573C258.402 72.3255 257.538 73.0324 256.98 73.4978C256.087 74.2427 255.09 74.5037 254.305 74.5966V100.635C254.41 100.64 254.516 100.646 254.623 100.657C255.187 100.715 256.003 100.89 256.787 101.465L256.944 101.585L257.174 101.78C259.494 103.842 259.838 107.113 259.977 108.594C260.146 110.391 259.342 111.904 258.766 112.76C258.104 113.743 257.221 114.633 256.278 115.304C256.278 115.304 254.577 116.001 253.283 115.956C252.938 115.919 252.501 116.029 252.157 115.992C252.157 115.992 251.8 115.956 251.737 115.956C228.977 115.957 206.217 115.957 183.096 115.957C179.779 115.957 176.621 115.976 173.516 115.968L170.423 115.949C159.413 115.839 150.799 106.07 150.243 93.5512C149.978 87.6003 149.387 80.5191 151.946 73.612C147.051 72.2255 142.955 69.2358 139.88 64.1589C136.908 59.2529 135.697 53.6923 136.064 47.8865C136.48 41.2801 138.629 35.9537 142.995 32.1548C146.58 29.0352 151.393 27.1903 157.26 26.2047C157.005 25.278 156.663 24.2523 156.285 22.9126C155.541 20.2733 154.964 17.0436 156.354 13.076C157.096 10.9581 157.562 10.0903 158.772 8.32362C160.475 5.83689 162.769 4.0158 165.161 2.78778C166.913 1.88852 169.305 1.48108 170.93 1.2747C171.808 1.16323 172.597 1.09606 173.166 1.05604C173.452 1.03596 173.686 1.02266 173.851 1.01428C173.933 1.01011 173.998 1.00637 174.044 1.0044C174.068 1.0034 174.086 1.00272 174.1 1.0022H174.125C174.158 1.00103 174.192 1 174.225 1H230.269L237.832 1.01648C240.334 1.02018 245.241 1.01648 245.241 1.01648ZM171.076 74.446C169.507 74.4474 168.256 74.84 167.19 75.5877C166.198 76.2826 165.205 77.3984 164.263 79.1644C163.853 83.0007 163.313 86.126 163.274 89.5141C163.221 94.1046 164.135 96.7919 165.425 98.3343C166.667 99.8204 168.775 100.852 172.446 100.855C195.191 100.872 217.936 100.864 240.682 100.853C240.688 100.853 240.695 100.852 240.701 100.852V74.4779C217.49 74.4542 194.283 74.4273 171.076 74.446ZM219.783 41.1651C198.904 41.1568 178.051 41.0903 157.193 41.1991C153.741 41.2172 151.438 43.032 150.329 45.5658C149.204 48.1358 149.127 51.9071 151.131 56.0672C152.913 58.5193 155.22 59.3446 158.465 59.3373C178.905 59.2916 199.354 59.319 219.783 59.3065V41.1651ZM233.888 16.2637C213.995 16.2468 194.117 16.2064 174.238 16.2944C172.922 16.3003 171.992 16.8293 171.374 17.5801C170.734 18.3582 170.269 19.5811 170.3 21.2127C170.33 22.8235 170.829 23.9649 171.482 24.6872C172.127 25.3999 173.111 25.9162 174.497 25.9212C184.225 25.9561 193.947 25.9321 204.414 25.9322H233.888V16.2637Z"
      fill="#44403C"
      stroke="#44403C"
      stroke-width="2"
      stroke-linejoin="round"
    />
  </g>
  <defs>
    <clipPath id="clip0_15_117">
      <rect width="572.746" height="117.18" fill="white" />
    </clipPath>
  </defs>
</svg>
