<svg
  width="1070"
  height="139"
  viewBox="0 0 1070 139"
  fill="none"
  xmlns="http://www.w3.org/2000/svg"
>
  <path
    d="M967.096 20.7683C970.282 19.9525 973.627 19.1841 976.811 19.3865C979.966 19.587 982.958 20.741 985.465 23.7937C987.092 25.7745 988.371 28.0525 989.629 30.3796L990.892 32.7136C1003.06 54.9046 1015.2 77.1351 1028.84 99.1824L1029.77 100.677V81.407C1029.77 63.8002 1029.94 46.1756 1029.68 28.5613C1029.64 25.2279 1030.22 23.0526 1031.54 21.6863C1032.86 20.3208 1035.03 19.6467 1038.45 19.6082C1042.01 19.5681 1044.32 20.197 1045.74 21.5876C1047.16 22.9759 1047.83 25.2398 1047.8 28.7781C1047.63 55.6384 1047.71 82.5034 1047.7 109.362L1047.7 120.873C1047.69 123.573 1047.69 126.183 1046.9 128.366C1046.13 130.495 1044.58 132.241 1041.38 133.177C1037.25 134.38 1033.48 134.414 1030.26 133.303C1027.05 132.195 1024.35 129.931 1022.4 126.458C1010.58 105.425 998.983 84.2716 987.281 63.1667C985.604 60.1429 983.826 57.0958 980.197 54.199L979.384 53.5515V105.75C979.374 113.291 979.322 120.091 979.367 126.886C979.378 128.553 979.112 129.787 978.659 130.707C978.209 131.618 977.563 132.247 976.758 132.687C975.111 133.59 972.801 133.713 970.15 133.713C967.569 133.712 965.45 133.441 963.978 132.481C962.559 131.555 961.643 129.916 961.646 126.901C961.677 96.2316 961.543 65.5684 961.856 34.9099L961.925 28.7781C961.942 27.4216 962.653 25.5524 963.699 23.9207C964.217 23.1129 964.803 22.3849 965.401 21.8259C966.005 21.2613 966.588 20.8986 967.096 20.7683Z"
    fill="#44403C"
    stroke="#44403C"
  />
  <path
    d="M28.4629 19.5703C40.5657 19.563 52.6518 19.2867 64.6973 19.8848C75.2603 20.4093 83.0271 23.3195 88.2734 28.7119C93.5193 34.1041 96.3201 42.0548 96.7881 52.8193C96.6117 58.1078 96.8929 62.6142 96.1484 66.9902C95.0269 73.582 92.2563 78.499 88.04 82.1123C83.8139 85.7339 78.0992 88.077 71.0449 89.4482L70.2344 89.6055L70.75 90.251C78.7046 100.2 86.3221 109.002 92.9844 118.492C93.9554 119.875 94.6484 121.848 94.9482 123.89C95.2483 125.933 95.1448 127.982 94.5869 129.516C94.3842 130.073 93.9443 130.688 93.3184 131.302C92.697 131.911 91.9175 132.493 91.0762 132.988C90.2349 133.483 89.343 133.883 88.501 134.136C87.6527 134.39 86.8865 134.484 86.2842 134.399C84.5466 134.155 82.6906 133.31 80.9502 132.13C79.2136 130.952 77.621 129.46 76.4121 127.959C67.1058 116.405 58.3706 104.4 49.416 92.5352C48.6611 91.5349 47.9305 90.5309 47.3105 89.4756C44.8731 85.3264 44.5281 81.9401 45.7939 79.584C47.0586 77.2305 50.0496 75.6844 54.8076 75.4971C59.7657 75.3019 63.7855 74.8552 66.9912 73.9805C70.2017 73.1044 72.6273 71.7908 74.3613 69.8428C77.8213 65.9556 78.3721 59.7184 77.4189 50.083C76.9474 45.3167 75.7067 41.7547 73.3018 39.3301C70.8915 36.9002 67.3921 35.693 62.5869 35.4541C53.5447 35.0045 44.443 35.3564 34.2041 35.3564H33.7041V43.9473C33.7031 70.6382 33.7353 97.3272 33.6826 124.017C33.6782 126.247 33.606 127.941 33.3691 129.239C33.1332 130.532 32.7435 131.374 32.1475 131.951C31.5497 132.53 30.6815 132.903 29.3604 133.124C28.036 133.346 26.3156 133.406 24.0635 133.404C21.8318 133.402 20.1267 133.336 18.8145 133.107C17.5063 132.879 16.6457 132.497 16.0518 131.909C15.4582 131.322 15.0702 130.467 14.8359 129.163C14.6009 127.854 14.5297 126.149 14.5273 123.91C14.4961 93.6952 14.4853 63.4801 14.5303 33.2656C14.5387 27.6563 15.3075 24.3051 17.3291 22.3174C19.3535 20.3269 22.7652 19.5738 28.4629 19.5703Z"
    fill="#44403C"
    stroke="#44403C"
  />
  <path
    d="M531.927 19.7928C540.219 20.4885 547.785 20.3917 555.01 22.0145C563.686 23.9635 570.773 27.7054 575.907 33.1444C581.039 38.5808 584.249 45.7419 585.125 54.5809C586.576 69.2152 586.69 84.2532 585.045 98.8397C583.973 108.348 580.344 116.033 574.591 121.639C568.837 127.246 560.925 130.805 551.234 131.998C537.373 133.704 523.245 133.319 509.162 133.516C506.26 133.557 504.113 132.73 502.687 131.224C501.256 129.713 500.481 127.443 500.481 124.46C500.481 92.5375 500.474 60.6152 500.492 28.6932C500.494 25.6956 501.286 23.5238 502.735 22.0887C504.185 20.6517 506.373 19.8761 509.329 19.8368C516.61 19.74 523.889 19.7999 531.927 19.7928ZM520.008 118.413L520.534 118.385C528.989 117.932 537.126 118.153 544.992 116.923C551.472 115.91 556.506 113.531 560.023 109.725C563.54 105.919 565.49 100.739 565.9 94.2157C566.622 82.7052 566.453 71.1062 565.997 59.5878C565.766 53.743 564.13 48.8225 560.908 44.9423C557.688 41.064 552.922 38.2705 546.514 36.6063L546.467 36.5946L546.418 36.5917L520.537 35.0575L520.008 35.0262V118.413Z"
    fill="#44403C"
    stroke="#44403C"
  />
  <path
    d="M366.317 20.625C368.516 18.9778 371.409 18.2535 375.222 18.5742C378.249 18.8289 381.328 18.6728 384.315 18.6514C386.98 18.6323 389.138 19.2762 390.817 20.5107C392.498 21.7458 393.743 23.6046 394.527 26.0908C405.013 59.3369 415.551 92.5628 425.63 125.927C425.766 126.377 425.768 127.009 425.629 127.756C425.492 128.493 425.225 129.301 424.871 130.079C424.517 130.857 424.082 131.593 423.614 132.189C423.141 132.792 422.661 133.221 422.227 133.43C419.298 134.839 416 134.94 413.224 134.089C410.44 133.236 408.25 131.452 407.438 129.162C406.062 125.281 404.878 121.329 403.688 117.363C402.5 113.402 401.306 109.426 399.914 105.52C399.555 104.513 398.721 103.403 397.78 102.545C397.305 102.112 396.788 101.729 396.269 101.448C395.754 101.17 395.207 100.977 394.681 100.961C382.639 100.597 370.577 100.767 358.139 100.767H357.769L357.66 101.119C354.929 109.998 352.411 118.587 349.631 127.097C348.592 130.275 345.89 132.759 342.753 133.938C339.617 135.116 336.128 134.961 333.509 132.985C333.124 132.695 332.763 132.203 332.453 131.545C332.146 130.893 331.903 130.109 331.74 129.276C331.412 127.6 331.417 125.8 331.776 124.556C337.136 106.016 343.043 87.6372 348.943 68.6104C353.246 54.8835 357.565 41.7679 361.467 28.5371C362.536 24.9096 364.111 22.2776 366.317 20.625ZM377.604 33.7773C372.316 51.579 367.651 67.2877 362.704 83.9424L362.514 84.585H363.184C372.122 84.585 380.083 84.5844 389.472 84.5596H389.627L389.756 84.4697C389.956 84.3304 390.201 84.1917 390.474 84.043C390.738 83.8989 391.033 83.7424 391.3 83.585C391.566 83.4278 391.835 83.2501 392.05 83.0488C392.26 82.8515 392.471 82.5828 392.52 82.2354C392.629 81.4581 392.533 80.6604 392.367 79.8975C392.202 79.1377 391.956 78.3714 391.749 77.6768C387.563 63.6545 383.335 49.644 378.562 33.7754L378.08 32.1738L377.604 33.7773Z"
    fill="#44403C"
    stroke="#44403C"
  />
  <path
    d="M863.661 22C868.619 22 870.915 23.1742 872.008 24.5361C873.115 25.9165 873.111 27.6219 873.118 29.0566C873.261 60.7702 873.227 92.4851 873.196 124.201C873.194 126.424 873.122 128.118 872.886 129.418C872.652 130.713 872.263 131.562 871.67 132.146C871.075 132.731 870.213 133.111 868.905 133.338C867.593 133.566 865.89 133.632 863.661 133.633C861.426 133.634 859.722 133.573 858.413 133.351C857.107 133.128 856.254 132.753 855.667 132.173C855.08 131.593 854.698 130.745 854.469 129.443C854.238 128.137 854.17 126.432 854.168 124.189C854.136 94.2357 854.114 64.2823 854.154 34.3291C854.157 31.8631 854.158 29.859 854.31 28.2236C854.463 26.5867 854.762 25.3844 855.322 24.4951C856.409 22.7687 858.631 22 863.661 22Z"
    fill="#44403C"
    stroke="#44403C"
  />
  <path
    d="M259.241 19.0165C259.241 19.0165 262.223 19.1925 263.971 19.8269C265.338 20.3233 266.355 21.0728 267.046 22.3151C267.714 23.5175 268.003 24.8968 268.054 26.3324C268.104 27.7709 267.921 29.1767 267.352 30.4365C266.761 31.7461 265.857 32.6688 264.835 33.2637C263.683 33.9338 262.394 34.1655 261.281 34.2384V43.9278C261.298 43.9286 261.315 43.9302 261.332 43.9311C263.101 44.0157 264.948 44.6327 266.316 46.2254C267.692 47.8276 268.154 49.9166 268.083 51.981C268.011 54.0918 267.323 56.0585 265.821 57.4388C264.387 58.7551 262.625 59.1562 261.072 59.1596C256.549 59.1695 252.024 59.1645 247.395 59.1629V77.3153C254.114 77.3264 260.728 77.3607 267.355 77.2736C269.581 77.2445 271.403 78.3536 272.552 80.1558C273.6 81.7991 273.964 83.7999 273.992 85.6158C274.012 86.909 273.774 88.1772 273.021 89.3573C272.402 90.3255 271.538 91.0324 270.98 91.4978C270.087 92.2427 269.09 92.5037 268.305 92.5966V118.635C268.41 118.64 268.516 118.646 268.623 118.657C269.187 118.715 270.003 118.89 270.787 119.465L270.944 119.585L271.174 119.78C273.494 121.842 273.838 125.113 273.977 126.594C274.146 128.391 273.342 129.904 272.766 130.76C272.104 131.743 271.221 132.633 270.278 133.304C270.278 133.304 268.577 134.001 267.283 133.956C266.938 133.919 266.501 134.029 266.157 133.992C266.157 133.992 265.8 133.956 265.737 133.956C242.977 133.957 220.217 133.957 197.096 133.957C193.779 133.957 190.621 133.976 187.516 133.968L184.423 133.949C173.413 133.839 164.799 124.07 164.243 111.551C163.978 105.6 163.387 98.5191 165.946 91.612C161.051 90.2255 156.955 87.2358 153.88 82.1589C150.908 77.2529 149.697 71.6923 150.064 65.8865C150.48 59.2801 152.629 53.9537 156.995 50.1548C160.58 47.0352 165.393 45.1903 171.26 44.2047C171.005 43.278 170.663 42.2523 170.285 40.9126C169.541 38.2733 168.964 35.0436 170.354 31.076C171.096 28.9581 171.562 28.0903 172.772 26.3236C174.475 23.8369 176.769 22.0158 179.161 20.7878C180.913 19.8885 183.305 19.4811 184.93 19.2747C185.808 19.1632 186.597 19.0961 187.166 19.056C187.452 19.036 187.686 19.0227 187.851 19.0143C187.933 19.0101 187.998 19.0064 188.044 19.0044C188.068 19.0034 188.086 19.0027 188.1 19.0022H188.125C188.158 19.001 188.192 19 188.225 19H244.269L251.832 19.0165C254.334 19.0202 259.241 19.0165 259.241 19.0165ZM185.076 92.446C183.507 92.4474 182.256 92.84 181.19 93.5877C180.198 94.2826 179.205 95.3984 178.263 97.1644C177.853 101.001 177.313 104.126 177.274 107.514C177.221 112.105 178.135 114.792 179.425 116.334C180.667 117.82 182.775 118.852 186.446 118.855C209.191 118.872 231.936 118.864 254.682 118.853C254.688 118.853 254.695 118.852 254.701 118.852V92.4779C231.49 92.4542 208.283 92.4273 185.076 92.446ZM233.783 59.1651C212.904 59.1568 192.051 59.0903 171.193 59.1991C167.741 59.2172 165.438 61.032 164.329 63.5658C163.204 66.1358 163.127 69.9071 165.131 74.0672C166.913 76.5193 169.22 77.3446 172.465 77.3373C192.905 77.2916 213.354 77.319 233.783 77.3065V59.1651ZM247.888 34.2637C227.995 34.2468 208.117 34.2064 188.238 34.2944C186.922 34.3003 185.992 34.8293 185.374 35.5801C184.734 36.3582 184.269 37.5811 184.3 39.2127C184.33 40.8235 184.829 41.9649 185.482 42.6872C186.127 43.3999 187.111 43.9162 188.497 43.9212C198.225 43.9561 207.947 43.9321 218.414 43.9322H247.888V34.2637Z"
    fill="#44403C"
    stroke="#44403C"
    stroke-width="2"
    stroke-linejoin="round"
  />
  <path
    d="M777.971 69.7431C777.971 84.6711 777.981 99.6064 777.951 114.54C777.951 114.78 777.963 115.015 777.976 115.397C777.987 115.737 777.997 116.172 777.971 116.622C777.927 117.355 777.77 118.708 776.746 119.898L776.529 120.134L776.322 120.338C774.141 122.385 770.78 122.956 767.858 122.454C766.893 122.289 765.731 122.027 764.615 121.455C763.425 120.846 762.509 120.003 761.812 118.949C761.317 118.201 761.12 117.43 761.049 116.768H741.154C741.142 120.886 741.121 124.941 741.182 129.012C741.199 130.178 741.291 132.346 740.324 134.187C739.774 135.234 738.875 136.222 737.505 136.93C736.179 137.615 734.659 137.911 733.076 137.963C731.49 138.015 729.942 137.827 728.553 137.244C727.109 136.639 726.092 135.713 725.436 134.665C724.697 133.484 724.44 132.164 724.36 131.023H713.679C713.678 131.04 713.676 131.058 713.675 131.076C713.582 132.889 712.901 134.781 711.145 136.182C709.378 137.592 707.075 138.065 704.799 137.993C702.472 137.919 700.304 137.214 698.782 135.675C697.331 134.206 696.89 132.4 696.887 130.809C696.876 126.175 696.88 121.538 696.882 116.795H676.914C676.915 119.165 675.461 121.031 673.594 122.157C671.761 123.261 669.424 123.743 667.17 123.489C666.121 123.372 664.95 123.142 663.823 122.532C662.708 121.928 661.969 121.131 661.405 120.412C660.797 119.639 660.517 118.782 660.368 118.205C660.204 117.569 660.117 116.93 660.068 116.4C660.019 115.861 660.004 115.373 660.001 115.023C659.999 114.846 660.001 114.7 660.003 114.594L660.005 114.466L660.151 105.979L660.19 53.8085C660.189 53.5191 660.19 53.2294 660.19 52.94L660.191 52.9389L660.198 38.1551C660.198 38.0648 660.202 37.9742 660.211 37.8842C660.921 30.8353 664.316 25.0366 671.529 20.9756C676.938 17.9308 683.069 16.6897 689.469 17.0651C696.753 17.4922 702.625 19.694 706.813 24.1675C710.266 27.8557 712.303 32.8117 713.386 38.8562C714.351 38.6573 715.817 38.3098 717.173 38.1014C719.297 37.7749 721.602 37.6919 724.398 38.1582C724.653 34.1654 726.527 30.6708 729.782 28.17C733.032 25.6736 737.402 24.3589 742.277 24.2926C748.009 24.2146 753.735 24.2409 759.423 24.2802C764.619 24.316 769.265 25.6021 772.665 28.2403C776.104 30.9097 777.891 34.6732 777.939 38.9885C778.054 49.2488 777.97 59.5321 777.971 69.7431ZM696.879 102.848C696.888 81.4539 696.963 60.0877 696.843 38.7155C696.823 35.1784 694.821 32.8189 692.028 31.6824C689.195 30.53 685.037 30.4499 680.451 32.5024C677.747 34.3286 676.838 36.693 676.846 40.0184C676.897 60.9623 676.866 81.9148 676.88 102.848H696.879ZM724.332 117.3C724.351 96.9167 724.395 76.5491 724.298 56.1805C724.292 54.8317 723.709 53.8787 722.881 53.246C722.023 52.5903 720.675 52.1133 718.876 52.1448C717.1 52.176 715.842 52.6873 715.046 53.3567C714.26 54.0172 713.691 55.0253 713.685 56.4462C713.666 61.4298 713.664 66.4118 713.666 71.4885L713.673 117.3H724.332ZM761.173 102.831C761.175 81.3058 761.185 59.9326 761.152 38.5584C761.151 38.2628 761.102 38.1111 761.08 38.0559C760.965 38.0014 760.509 37.8284 759.388 37.8346C756.843 37.8488 754.3 37.8449 751.777 37.8408C749.248 37.8366 746.737 37.8325 744.229 37.847C742.765 37.8555 741.868 37.9012 741.285 37.9866C741.21 38.4012 741.164 39.0441 741.163 40.0897C741.157 59.2117 741.161 78.3332 741.161 98.1951V102.831H761.173Z"
    fill="#44403C"
    stroke="#44403C"
    stroke-linejoin="round"
  />
</svg>
